# xmcd CD database file
#
# Track frame offsets:
#	150
#	19500
#	43202
#	59250
#	84082
#	106950
#	132072
#	166832
#	186002
#	209070
#	233007
#	258332
#	290752
#
# Disc length: 4263 seconds
#
# Revision: 3
# Processed by: cddbd v1.5.2PL0 Copyright (c) Steve Scherf et al.
# Submitted via: CDex 1.81
#
DISCID=ad10a50d
DTITLE=Tropical Jazz Big Band - 15-The Covers
DYEAR=2011
DGENRE=Jazz
TTITLE0=In The Mood
TTITLE1=In The Stone - Fantasy
TTITLE2=Napoleon Solo
TTITLE3=C'est La Vie
TTITLE4=Libertango
TTITLE5=Sunny
TTITLE6=Spain
TTITLE7=The Windmills Of Your Mind
TTITLE8=Star Trek
TTITLE9=Hip To Be Square
TTITLE10=Walk Don't Run
TTITLE11=Pick Up The Pieces
TTITLE12=Can't Give You Anything (But My Love)
EXTD=YEAR: 2011
EXTT0=
EXTT1=
EXTT2=
EXTT3=
EXTT4=
EXTT5=
EXTT6=
EXTT7=
EXTT8=
EXTT9=
EXTT10=
EXTT11=
EXTT12=
PLAYORDER=
